<svg xmlns="http://www.w3.org/2000/svg" viewBox="0 0 48.27 47.9"><defs><style>.cls-1{fill:none;stroke:#222323;stroke-linecap:round;stroke-miterlimit:5;stroke-width:4px;}</style></defs><title>Asset 12meow</title><g id="Layer_2" data-name="Layer 2"><g id="Layer_1-2" data-name="Layer 1"><line class="cls-1" x1="45.21" y1="14" x2="46.09" y2="14.88"/><line class="cls-1" x1="33.2" y1="2" x2="34.31" y2="3.1"/><line class="cls-1" x1="46.27" y1="14.88" x2="46.27" y2="33.02"/><line class="cls-1" x1="46.27" y1="32.84" x2="33.39" y2="45.72"/><line class="cls-1" x1="33.2" y1="2" x2="14.88" y2="2"/><line class="cls-1" x1="15.06" y1="2" x2="2.18" y2="14.88"/><line class="cls-1" x1="2" y1="14.7" x2="2" y2="33.02"/><line class="cls-1" x1="2.18" y1="33.02" x2="15.06" y2="45.9"/><line class="cls-1" x1="15.06" y1="45.9" x2="33.39" y2="45.9"/><line class="cls-1" x1="32.3" y1="27.22" x2="45.18" y2="14.34"/><line class="cls-1" x1="33.93" y1="3.09" x2="21.05" y2="15.97"/><line class="cls-1" x1="27.43" y1="16.2" x2="32.05" y2="20.81"/><line class="cls-1" x1="32.11" y1="20.81" x2="32.11" y2="27.32"/><line class="cls-1" x1="32.11" y1="27.25" x2="27.49" y2="31.87"/><line class="cls-1" x1="27.43" y1="16.2" x2="20.86" y2="16.2"/><line class="cls-1" x1="20.92" y1="16.2" x2="16.31" y2="20.81"/><line class="cls-1" x1="16.24" y1="20.75" x2="16.24" y2="27.32"/><line class="cls-1" x1="16.31" y1="27.32" x2="20.92" y2="31.93"/><line class="cls-1" x1="20.92" y1="31.93" x2="27.49" y2="31.93"/></g></g></svg>